<svg width="900" height="540" viewBox="0 0 900 540" fill="none" xmlns="http://www.w3.org/2000/svg">
  <rect width="900" height="540" rx="24" fill="#F7F7F8"/>
  <rect x="60" y="64" width="220" height="32" rx="16" fill="#D6E1FF"/>
  <rect x="60" y="116" width="340" height="22" rx="11" fill="#E3E8EF"/>
  <rect x="60" y="152" width="310" height="22" rx="11" fill="#E3E8EF"/>
  <rect x="60" y="188" width="270" height="22" rx="11" fill="#E3E8EF"/>
  <rect x="60" y="240" width="780" height="220" rx="18" fill="#FFFFFF" stroke="#E6E8EB" stroke-width="2"/>
  <rect x="90" y="270" width="220" height="34" rx="12" fill="#E6E8EB"/>
  <rect x="90" y="316" width="180" height="14" rx="7" fill="#F1F3F5"/>
  <rect x="90" y="340" width="160" height="14" rx="7" fill="#F1F3F5"/>
  <rect x="90" y="364" width="180" height="14" rx="7" fill="#F1F3F5"/>
  <rect x="340" y="276" width="160" height="20" rx="10" fill="#D6E1FF"/>
  <rect x="340" y="308" width="120" height="12" rx="6" fill="#E3E8EF"/>
  <rect x="340" y="328" width="140" height="12" rx="6" fill="#E3E8EF"/>
  <rect x="620" y="270" width="100" height="14" rx="7" fill="#F1F3F5"/>
  <rect x="620" y="294" width="140" height="14" rx="7" fill="#F1F3F5"/>
  <rect x="620" y="318" width="120" height="14" rx="7" fill="#F1F3F5"/>
  <rect x="620" y="342" width="110" height="14" rx="7" fill="#F1F3F5"/>
  <rect x="620" y="366" width="130" height="14" rx="7" fill="#F1F3F5"/>
  <rect x="60" y="476" width="140" height="24" rx="12" fill="#151E3D" opacity="0.9"/>
  <rect x="214" y="476" width="96" height="24" rx="12" fill="#E6E8EB"/>
</svg>
